<mxfile host="app.diagrams.net" modified="2024-08-08T08:22:03.359Z" agent="Mozilla/5.0 (Macintosh; Intel Mac OS X 10_15_7) AppleWebKit/537.36 (KHTML, like Gecko) Chrome/126.0.0.0 Safari/537.36" etag="I_XEFC25LoJKHB8RAzCr" version="24.6.5" type="github">
  <diagram name="Page-1" id="BYTXbC25DRY8ZI2Z7DPX">
    <mxGraphModel dx="1026" dy="1735" grid="1" gridSize="10" guides="1" tooltips="1" connect="1" arrows="1" fold="1" page="1" pageScale="1" pageWidth="827" pageHeight="1169" math="0" shadow="0">
      <root>
        <mxCell id="0" />
        <mxCell id="1" parent="0" />
        <mxCell id="M__pvSeYkyBA2umGWvLx-6" value="" style="rounded=1;whiteSpace=wrap;html=1;" parent="1" vertex="1">
          <mxGeometry x="180" y="280" width="180" height="60" as="geometry" />
        </mxCell>
        <mxCell id="M__pvSeYkyBA2umGWvLx-7" value="iomp-order-service" style="text;html=1;align=center;verticalAlign=middle;whiteSpace=wrap;rounded=0;" parent="1" vertex="1">
          <mxGeometry x="205" y="300" width="130" height="22.5" as="geometry" />
        </mxCell>
        <mxCell id="M__pvSeYkyBA2umGWvLx-14" value="" style="shape=flexArrow;endArrow=classic;startArrow=classic;html=1;rounded=0;entryX=0;entryY=0.5;entryDx=0;entryDy=0;" parent="1" edge="1" target="0USdb_t3DaOtPhE5vXOL-1">
          <mxGeometry width="100" height="100" relative="1" as="geometry">
            <mxPoint x="360" y="309.5" as="sourcePoint" />
            <mxPoint x="456" y="310" as="targetPoint" />
          </mxGeometry>
        </mxCell>
        <mxCell id="M__pvSeYkyBA2umGWvLx-25" value="DB" style="shape=cylinder3;whiteSpace=wrap;html=1;boundedLbl=1;backgroundOutline=1;size=15;" parent="1" vertex="1">
          <mxGeometry x="260" y="440" width="60" height="60" as="geometry" />
        </mxCell>
        <mxCell id="0USdb_t3DaOtPhE5vXOL-1" value="&lt;span style=&quot;color: rgb(0, 0, 0); font-family: Helvetica; font-size: 12px; font-style: normal; font-variant-ligatures: normal; font-variant-caps: normal; font-weight: 400; letter-spacing: normal; orphans: 2; text-align: center; text-indent: 0px; text-transform: none; widows: 2; word-spacing: 0px; -webkit-text-stroke-width: 0px; white-space: normal; background-color: rgb(251, 251, 251); text-decoration-thickness: initial; text-decoration-style: initial; text-decoration-color: initial; display: inline !important; float: none;&quot;&gt;iomp-data-service&lt;/span&gt;" style="rounded=1;whiteSpace=wrap;html=1;" parent="1" vertex="1">
          <mxGeometry x="460" y="281.25" width="180" height="60" as="geometry" />
        </mxCell>
        <mxCell id="0USdb_t3DaOtPhE5vXOL-2" value="DB" style="shape=cylinder3;whiteSpace=wrap;html=1;boundedLbl=1;backgroundOutline=1;size=15;" parent="1" vertex="1">
          <mxGeometry x="520" y="420" width="60" height="60" as="geometry" />
        </mxCell>
        <mxCell id="0USdb_t3DaOtPhE5vXOL-3" value="" style="shape=flexArrow;endArrow=classic;startArrow=classic;html=1;rounded=0;exitX=0.5;exitY=0;exitDx=0;exitDy=0;exitPerimeter=0;" parent="1" edge="1">
          <mxGeometry width="100" height="100" relative="1" as="geometry">
            <mxPoint x="287.5" y="441.25" as="sourcePoint" />
            <mxPoint x="288" y="341" as="targetPoint" />
          </mxGeometry>
        </mxCell>
        <mxCell id="0USdb_t3DaOtPhE5vXOL-5" value="" style="shape=flexArrow;endArrow=classic;startArrow=classic;html=1;rounded=0;exitX=0.5;exitY=0;exitDx=0;exitDy=0;exitPerimeter=0;entryX=0.5;entryY=1;entryDx=0;entryDy=0;" parent="1" source="0USdb_t3DaOtPhE5vXOL-2" target="0USdb_t3DaOtPhE5vXOL-1" edge="1">
          <mxGeometry width="100" height="100" relative="1" as="geometry">
            <mxPoint x="470" y="430" as="sourcePoint" />
            <mxPoint x="550" y="370" as="targetPoint" />
          </mxGeometry>
        </mxCell>
        <mxCell id="0USdb_t3DaOtPhE5vXOL-6" value="&lt;pre style=&quot;margin-top: 0px;&quot;&gt;&lt;pre&gt;&lt;pre&gt;&lt;pre&gt;&lt;span dir=&quot;ltr&quot; class=&quot;ui-provider a b c d e f g h i j k l m n o p q r s t u v w x y z ab ac ae af ag ah ai aj ak&quot;&gt;&lt;pre&gt;{&lt;br/&gt;   &quot;data&quot;:[&lt;br/&gt;      {&lt;br/&gt;         &quot;orderId&quot;:&quot;NHY5B0703&quot;,&lt;br/&gt;         &quot;customerAccNo&quot;:&quot;454545&quot;,&lt;br/&gt;         &quot;continentCode&quot;:&quot;N&quot;,&lt;br/&gt;         &quot;tempCoreId&quot;:&quot;abc&quot;,&lt;br/&gt;         &quot;status&quot;:&quot;Shipped&quot;,&lt;br/&gt;         &quot;permanentCoreId&quot;:&quot;abc&quot;,&lt;br/&gt;         &quot;orderType&quot;:&quot;Hybrid&quot;,&lt;br/&gt;         &quot;orderCreationDate&quot;:&quot;30/Jul/24&quot;,&lt;br/&gt;         &quot;updatedDate&quot;:null&lt;br/&gt;      },&lt;br/&gt;      {&lt;br/&gt;         &quot;orderId&quot;:&quot;EOP3U0961&quot;,&lt;br/&gt;         &quot;customerAccNo&quot;:&quot;123123&quot;,&lt;br/&gt;         &quot;continentCode&quot;:&quot;E&quot;,&lt;br/&gt;         &quot;tempCoreId&quot;:&quot;abc&quot;,&lt;br/&gt;         &quot;status&quot;:&quot;Approved&quot;,&lt;br/&gt;         &quot;permanentCoreId&quot;:&quot;abc&quot;,&lt;br/&gt;         &quot;orderType&quot;:&quot;Opex&quot;,&lt;br/&gt;         &quot;orderCreationDate&quot;:&quot;23/Jul/24&quot;,&lt;br/&gt;         &quot;updatedDate&quot;:null&lt;br/&gt;      }&lt;br/&gt;   ],&lt;br/&gt;   &quot;totalRecords&quot;:2,&lt;br/&gt;   &quot;key&quot;:&quot;bb016b93-7fca-4351-a89e-f555d3e13f35&quot;,&lt;br/&gt;   &quot;timestamp&quot;:1723105213379&lt;br/&gt;}&lt;br&gt;&lt;/pre&gt;&lt;/span&gt;&lt;/pre&gt;&lt;/pre&gt;&lt;/pre&gt;&lt;/pre&gt;" style="text;html=1;whiteSpace=wrap;overflow=hidden;rounded=0;align=left;" parent="1" vertex="1">
          <mxGeometry x="205" y="-180" width="455" height="440" as="geometry" />
        </mxCell>
      </root>
    </mxGraphModel>
  </diagram>
</mxfile>
